<svg height="492pt" viewBox="0 -71 492 492" width="492pt" xmlns="http://www.w3.org/2000/svg"><path d="m246 117.90625c10.25 0 18.558594-8.308594 18.558594-18.558594s-8.308594-18.558594-18.558594-18.558594-18.558594 8.308594-18.558594 18.558594c.011719 10.246094 8.3125 18.546875 18.558594 18.558594zm0-25.117188c3.621094 0 6.558594 2.9375 6.558594 6.558594s-2.9375 6.558594-6.558594 6.558594-6.558594-2.9375-6.558594-6.558594c.003906-3.621094 2.9375-6.554687 6.558594-6.558594zm0 0"/><path d="m161.175781 146.40625h-38.640625c-3.316406 0-6 2.6875-6 6v38.644531c0 3.3125 2.683594 6 6 6h38.640625c3.316407 0 6-2.6875 6-6v-38.644531c0-3.3125-2.683593-6-6-6zm-6 38.644531h-26.640625v-26.644531h26.640625zm0 0"/><path d="m122.535156 322.46875h38.640625c3.316407 0 6-2.6875 6-6v-57.964844c0-3.3125-2.683593-6-6-6h-38.640625c-3.316406 0-6 2.6875-6 6v57.964844c0 3.3125 2.683594 6 6 6zm6-57.964844h26.640625v45.964844h-26.640625zm0 0"/><path d="m330.863281 197.050781h38.640625c3.316406 0 6-2.6875 6-6v-38.644531c0-3.3125-2.683594-6-6-6h-38.640625c-3.316406 0-6 2.6875-6 6v38.644531c0 3.3125 2.683594 6 6 6zm6-38.644531h26.640625v26.644531h-26.640625zm0 0"/><path d="m330.863281 322.46875h38.640625c3.316406 0 6-2.6875 6-6v-57.964844c0-3.3125-2.683594-6-6-6h-38.640625c-3.316406 0-6 2.6875-6 6v57.964844c0 3.3125 2.683594 6 6 6zm6-57.964844h26.640625v45.964844h-26.640625zm0 0"/><path d="m265.320312 146.40625h-38.640624c-3.316407 0-6 2.6875-6 6v38.644531c0 3.3125 2.683593 6 6 6h38.640624c3.316407 0 6-2.6875 6-6v-38.644531c0-3.3125-2.683593-6-6-6zm-6 38.644531h-26.640624v-26.644531h26.640624zm0 0"/><path d="m486 310.796875h-5.78125c5.082031-7.320313 3.890625-17.28125-2.769531-23.195313-6.664063-5.917968-16.699219-5.917968-23.359375 0-6.664063 5.914063-7.855469 15.875-2.773438 23.195313h-9.742187c5.082031-7.320313 3.894531-17.28125-2.769531-23.195313-6.664063-5.917968-16.699219-5.917968-23.359376 0-6.664062 5.914063-7.855468 15.875-2.769531 23.195313h-6.101562v-199.71875h17.039062c2.070313 0 3.992188-1.0625 5.089844-2.816406 1.097656-1.757813 1.210937-3.953125.304687-5.8125l-48.308593-99.078125c-1.003907-2.0625-3.097657-3.371094-5.390625-3.371094h-258.617188c-2.292968 0-4.386718 1.308594-5.394531 3.371094l-48.300781 99.078125c-.90625 1.859375-.789063 4.054687.308594 5.8125 1.09375 1.753906 3.019531 2.816406 5.085937 2.816406h17.039063v199.71875h-8.183594c5.082031-7.320313 3.890625-17.28125-2.773438-23.195313-6.660156-5.914062-16.695312-5.914062-23.355468 0-6.664063 5.914063-7.855469 15.875-2.773438 23.195313h-9.742188c5.082032-7.320313 3.890626-17.28125-2.773437-23.195313-6.660156-5.914062-16.695313-5.914062-23.355469 0-6.664062 5.914063-7.855468 15.875-2.773437 23.195313h-3.699219c-3.3125 0-6 2.683594-6 6v27.460937c0 3.3125 2.6875 6 6 6h480c3.3125 0 6-2.6875 6-6v-27.460937c0-3.316406-2.6875-6-6-6zm-423.199219-15.601563c3.089844 0 5.59375 2.503907 5.59375 5.59375 0 3.085938-2.503906 5.59375-5.59375 5.59375-3.089843 0-5.59375-2.507812-5.59375-5.59375.003907-3.089843 2.503907-5.59375 5.59375-5.597656zm-38.644531 0c3.089844 0 5.59375 2.503907 5.59375 5.59375 0 3.085938-2.503906 5.59375-5.59375 5.59375s-5.59375-2.507812-5.59375-5.59375c.003906-3.089843 2.503906-5.589843 5.589844-5.597656zm61.277344 43.066407h-73.433594v-15.464844h73.429688zm380.339844-43.066407c3.085937 0 5.589843 2.503907 5.589843 5.59375 0 3.085938-2.503906 5.59375-5.589843 5.59375-3.089844 0-5.59375-2.507812-5.59375-5.59375 0-3.089843 2.5-5.589843 5.589843-5.597656zm-38.644532 0c3.089844 0 5.59375 2.503907 5.59375 5.59375 0 3.085938-2.503906 5.59375-5.59375 5.59375s-5.59375-2.507812-5.59375-5.59375c.003906-3.089843 2.503906-5.589843 5.589844-5.597656zm-235.429687 43.0625h-94.269531v-104.34375h94.269531zm48.300781 0h-36.300781v-80.742187h36.300781zm48.300781 0h-36.300781v-80.742187h36.300781zm0-92.742187h-84.601562v-11.601563h84.601562zm106.265625 92.742187h-94.265625v-104.34375h94.265625zm0-116.34375h-297.136718v-110.835937h83.988281c1.589843.003906 3.117187-.628906 4.242187-1.753906l60.339844-60.339844 60.339844 60.339844c1.125 1.125 2.652344 1.757812 4.242187 1.753906h83.988281zm-81.5-122.835937-62.824218-62.824219c-2.339844-2.34375-6.140626-2.34375-8.484376 0l-62.824218 62.824219h-100.945313l42.453125-87.078125h251.117188l42.453125 87.078125zm166.933594 239.179687h-73.429688v-15.460937h73.429688zm0 0"/></svg>