<svg id="Layer_1" height="512" viewBox="0 0 512 512" width="512" xmlns="http://www.w3.org/2000/svg" data-name="Layer 1"><path d="m143.985 54.606h103.58a6 6 0 0 0 0-12h-103.58a6 6 0 0 0 0 12z"/><path d="m139.317 92.716h108.248a6 6 0 0 0 0-12h-108.248a6 6 0 0 0 0 12z"/><path d="m139.317 130.827h241.664a6 6 0 0 0 0-12h-241.664a6 6 0 0 0 0 12z"/><path d="m380.981 168.937a6 6 0 0 0 0-12h-241.664a6 6 0 0 0 0 12z"/><path d="m374.179 399.261a13.119 13.119 0 0 0 10.651 5.458 13.28 13.28 0 0 0 5.25-1.087l22.78-9.78a13.083 13.083 0 0 0 6.7-17.619l-7.923-16.748-1.737-331.512a23.145 23.145 0 0 0 -23.261-22.973h-253.921a23.145 23.145 0 0 0 -23.261 22.973v317.065l-16.764 31.81a13.007 13.007 0 0 0 5.218 17.518l21.627 12.08a13.129 13.129 0 0 0 6.425 1.686 13.332 13.332 0 0 0 3.768-.548 13.059 13.059 0 0 0 7.906-6.453l2.342-4.419 7.8 6.446-13.695 18.842a20.842 20.842 0 0 0 16.865 33.1 21.164 21.164 0 0 0 3.634-.315c.006.039.007.079.013.118a20.7 20.7 0 0 0 8.458 13.617 20.8 20.8 0 0 0 12.123 3.877 21.249 21.249 0 0 0 3.642-.316c.007.041.008.083.014.125a20.836 20.836 0 0 0 20.581 17.5 21.144 21.144 0 0 0 3.633-.315c.006.04.007.079.013.118a20.832 20.832 0 0 0 20.584 17.491 20.953 20.953 0 0 0 16.981-8.606l4.34-5.971 8.122 6.432a22.517 22.517 0 0 0 31.431-2.369 22 22 0 0 0 5.276-11.683 22.458 22.458 0 0 0 23.333-6.722 22 22 0 0 0 5.273-11.681 22.456 22.456 0 0 0 23.332-6.722 22.006 22.006 0 0 0 5.14-10.9 22.555 22.555 0 0 0 25.128-6.195l.27-.309a21.663 21.663 0 0 0 -2.27-30.731l-4.943-4.229a47.586 47.586 0 0 0 9.122-8.053zm34.566-17.072a1.109 1.109 0 0 1 -.62.636l-22.78 9.781a1.2 1.2 0 0 1 -1.553-.555l-2.877-6.051a6.02 6.02 0 0 0 -1.074-2.258l-51.883-109.028a1.032 1.032 0 0 1 -.03-.841 1.11 1.11 0 0 1 .652-.637l23.411-9.142a1.193 1.193 0 0 1 1.516.573l55.2 116.7a1.035 1.035 0 0 1 .038.822zm-287.288-354.216a11.132 11.132 0 0 1 11.261-10.973h253.921a11.138 11.138 0 0 1 11.261 11.005l1.6 305.828-35.148-74.3a13.227 13.227 0 0 0 -16.729-6.618l-23.411 9.141a13.085 13.085 0 0 0 -7.092 17.813l2.444 5.137-.739.312c-8.937 1.837-15.173 1.571-24.415-1l-23.386-6.518a37.164 37.164 0 0 0 -21.139.339l-22.572 7.077a37.006 37.006 0 0 0 -12.359 6.657 48.155 48.155 0 0 0 -18.489-1.755l1.64-3.094a13.09 13.09 0 0 0 -4.824-17.325l-21.5-12.965a13.206 13.206 0 0 0 -18.492 5.122l-31.837 60.41zm5.577 367.539a1.137 1.137 0 0 1 -.7.562 1.2 1.2 0 0 1 -.944-.1l-21.628-12.08a1.08 1.08 0 0 1 -.453-1.448l60.6-114.99a1.136 1.136 0 0 1 .718-.57 1.3 1.3 0 0 1 .34-.047 1.192 1.192 0 0 1 .621.176l21.494 12.965a1.072 1.072 0 0 1 .419 1.43zm18.773 45.948a8.852 8.852 0 0 1 -2.016-12.408l22.473-30.916a8.955 8.955 0 0 1 12.415-2.017 8.844 8.844 0 0 1 2.015 12.4l-6.094 8.381-16.291 22.411-.095.13a8.949 8.949 0 0 1 -12.407 2.019zm24.221 17.3a8.836 8.836 0 0 1 -2.016-12.384l16.3-22.417a8.952 8.952 0 0 1 12.4-2.014 8.852 8.852 0 0 1 2.016 12.408l-5.134 7.063-11.044 15.184-.095.13a8.967 8.967 0 0 1 -12.427 2.025zm24.244 17.312a8.853 8.853 0 0 1 -2.016-12.409l11.21-15.421a8.957 8.957 0 0 1 12.415-2.017 8.844 8.844 0 0 1 2.014 12.4l-7.441 10.237-3.68 5.062v.005l-.094.129a8.953 8.953 0 0 1 -12.408 2.009zm36.646 15.275a8.965 8.965 0 0 1 -12.425 2.019 8.839 8.839 0 0 1 -2.016-12.384l6.153-8.464a8.959 8.959 0 0 1 12.415-2.017 8.844 8.844 0 0 1 2.014 12.4zm132.3-56.954-.269.309a10.525 10.525 0 0 1 -14.735 1.119l-8.749-7.494c-.014-.012-.025-.025-.039-.037l-23.189-19.853a6 6 0 1 0 -7.8 9.115l.12.1.2.169c1.923 1.647 12.561 10.754 22.907 19.615a10.127 10.127 0 0 1 1.029 14.36 10.481 10.481 0 0 1 -14.674 1.057l-23.193-19.853a6 6 0 0 0 -9.9 4.446v.017a5.983 5.983 0 0 0 2.1 4.652l16 13.694a10.131 10.131 0 0 1 1.065 14.392 10.482 10.482 0 0 1 -14.676 1.057l-7.19-6.155-.006-.006-8.8-7.53a6 6 0 0 0 -7.8 9.116l7.65 6.548 1.147.982a10.132 10.132 0 0 1 1.066 14.394 10.481 10.481 0 0 1 -14.675 1.057c-.058-.05-.118-.1-.177-.146l-10.22-8.093a20.773 20.773 0 0 0 -19.122-24.5 20.776 20.776 0 0 0 -19.167-24.276 20.786 20.786 0 0 0 -18.364-24.217 20.9 20.9 0 0 0 -37.189-17.348l-1.711 2.353-9.131-7.548 43.653-82.376a44.109 44.109 0 0 1 16.878-1.326 37.049 37.049 0 0 0 -1.889 3.8l-6.9 16.656c-1.768 4.27-3.4 8.661-4.851 13.049l-6.883 20.823a6 6 0 0 0 3.266 7.371l1.483.655a35.934 35.934 0 0 0 34.458-2.635 34.811 34.811 0 0 0 15.617-25.738q.051-.518.091-1.044c.329-1.548 2.429-10.24 8.2-10.918l9.638 2.694a22.108 22.108 0 0 1 9.5 5.479l61.57 60.33c.1.094.2.185.3.273l32.343 27.679a9.662 9.662 0 0 1 1.02 13.727zm-25.418-50.393-61.425-60.187a34.133 34.133 0 0 0 -14.662-8.464l-10.58-2.958a5.758 5.758 0 0 0 -1.64-.222c-7.158.03-13.263 4.018-17.191 11.229a34.914 34.914 0 0 0 -3.529 9.923 5.883 5.883 0 0 0 -.07.593q-.039.552-.091 1.1a22.861 22.861 0 0 1 -10.282 16.876 24.083 24.083 0 0 1 -19.409 2.939l5.079-15.371c1.359-4.112 2.888-8.224 4.545-12.224l6.875-16.6a24.857 24.857 0 0 1 15.48-13.967l22.572-7.077a25.2 25.2 0 0 1 14.329-.229l23.388 6.515c11.406 3.177 19.434 3.456 30.68 1.067a5.966 5.966 0 0 0 1.087-.342l1.768-.747 43.5 91.4a35.572 35.572 0 0 1 -12.746 11.859z"/><path d="m160.014 242.089a26.46 26.46 0 0 0 11.267 2.374 30.158 30.158 0 0 0 15.856-4.411 32.212 32.212 0 0 0 8.687-8.594c.394-.525.869-1.158 1.287-1.667a27.241 27.241 0 0 0 5.339 3.707 35.575 35.575 0 0 0 16.051 4.095 36.573 36.573 0 0 0 19.167-5.043 6 6 0 1 0 -6.041-10.368 24.522 24.522 0 0 1 -12.862 3.414 23.527 23.527 0 0 1 -10.638-2.67 16.093 16.093 0 0 1 -3.524-2.533 10.572 10.572 0 0 0 -7.146-3.252c-5.778-.164-8.923 4.04-11.23 7.113a21.211 21.211 0 0 1 -5.49 5.647c-4.433 2.795-11.278 3.385-15.582 1.345a11.627 11.627 0 0 1 -3.767-2.967 28.083 28.083 0 0 0 12.905-5.492 30.278 30.278 0 0 0 8.547-10.779c2.57-5.571 2.538-10.883-.09-14.955-2.216-3.433-6.215-5.784-11.261-6.62-6.723-1.116-14.123.582-18.853 4.322-5.213 4.122-8.1 11.252-8.036 19.535l-.112-.048a6 6 0 1 0 -4.729 11.029 43.685 43.685 0 0 0 7.491 2.449c2.664 6.535 7.166 11.715 12.764 14.369zm.065-37.921a12.276 12.276 0 0 1 7.216-2.075 13.7 13.7 0 0 1 2.231.178c2.111.35 3 1.067 3.142 1.29.634.984-1.309 6.279-5.778 9.781a17.242 17.242 0 0 1 -10.139 3.388c-.603-5.467.73-10.508 3.328-12.562z"/><path d="m380.981 215.417h-90.058a6 6 0 0 0 0 12h90.058a6 6 0 0 0 0-12z"/></svg>