<?xml version="1.0"?>
<svg xmlns="http://www.w3.org/2000/svg" id="Layer_1" data-name="Layer 1" viewBox="0 0 512 512" width="512" height="512"><title>Dollar Coins</title><path d="M365.093,281.15c-21.284-8.513-49.454-13.2-79.322-13.2a263.739,263.739,0,0,0-41.719,3.229V108.334c0-14.269-12.68-27.2-35.7-36.408-21.284-8.514-49.454-13.2-79.322-13.2S70.988,63.412,49.7,71.926C26.68,81.136,14,94.065,14,108.334V370c0,14.269,12.68,27.2,35.7,36.408,21.284,8.514,49.454,13.2,79.321,13.2a261.8,261.8,0,0,0,41.721-3.238V448.39c0,14.268,12.68,27.2,35.7,36.408,21.284,8.514,49.454,13.2,79.321,13.2s58.038-4.688,79.322-13.2c23.025-9.21,35.7-22.14,35.7-36.408V317.559C400.8,303.29,388.118,290.36,365.093,281.15ZM129.025,70.724c60.715,0,103.027,19.821,103.027,37.61s-42.312,37.61-103.027,37.61S26,126.123,26,108.334,68.311,70.724,129.025,70.724ZM26,131.044c5.883,5.123,13.841,9.753,23.7,13.7,21.284,8.514,49.454,13.2,79.321,13.2s58.037-4.688,79.322-13.2c9.863-3.945,17.822-8.575,23.7-13.7v20.9c0,17.789-42.312,37.611-103.027,37.611S26,169.733,26,151.944Zm0,43.61c5.883,5.124,13.841,9.753,23.7,13.7,21.284,8.513,49.454,13.2,79.321,13.2s58.037-4.689,79.322-13.2c9.863-3.946,17.822-8.576,23.7-13.7v20.9c0,17.789-42.312,37.61-103.027,37.61S26,213.344,26,195.555Zm0,43.61c5.883,5.124,13.841,9.754,23.7,13.7,21.284,8.514,49.454,13.2,79.321,13.2s58.037-4.688,79.322-13.2c9.863-3.945,17.822-8.575,23.7-13.7v20.9c0,17.789-42.312,37.61-103.027,37.61S26,256.954,26,239.165Zm0,43.611c5.883,5.123,13.841,9.753,23.7,13.7,21.284,8.514,49.454,13.2,79.321,13.2s58.037-4.688,79.322-13.2c9.863-3.945,17.822-8.575,23.7-13.7v11.579a164.477,164.477,0,0,0-25.6,7.7c-22.715,9.087-35.352,21.794-35.688,35.835a248.194,248.194,0,0,1-41.737,3.4C68.311,320.385,26,300.564,26,282.775Zm0,43.61c5.883,5.123,13.841,9.753,23.7,13.7,21.284,8.513,49.454,13.2,79.321,13.2a261.7,261.7,0,0,0,41.721-3.239V360.6a248.234,248.234,0,0,1-41.721,3.4C68.311,364,26,344.174,26,326.385ZM26,370v-20.9c5.883,5.124,13.841,9.754,23.7,13.7,21.284,8.514,49.454,13.2,79.321,13.2a261.7,261.7,0,0,0,41.721-3.239v31.453a248.315,248.315,0,0,1-41.721,3.4C68.311,407.605,26,387.784,26,370ZM285.771,486c-60.714,0-103.025-19.821-103.025-37.61v-20.9c5.883,5.124,13.841,9.753,23.7,13.7,21.284,8.513,49.454,13.2,79.321,13.2s58.038-4.689,79.322-13.2c9.863-3.946,17.822-8.576,23.7-13.7v20.9C388.8,466.179,346.486,486,285.771,486Zm0-43.61c-60.714,0-103.025-19.822-103.025-37.611v-20.9c5.883,5.123,13.841,9.753,23.7,13.7,21.284,8.514,49.454,13.2,79.321,13.2s58.039-4.688,79.322-13.2c9.863-3.945,17.822-8.575,23.7-13.7v20.9C388.8,422.568,346.486,442.39,285.771,442.39Zm0-43.611c-60.714,0-103.025-19.821-103.025-37.61v-20.9c5.883,5.124,13.841,9.753,23.7,13.7,21.284,8.513,49.454,13.2,79.321,13.2s58.039-4.689,79.322-13.2c9.863-3.946,17.822-8.575,23.7-13.7v20.9C388.8,378.958,346.486,398.779,285.771,398.779Zm0-43.61c-60.714,0-103.025-19.821-103.025-37.61s42.311-37.611,103.025-37.611S388.8,299.77,388.8,317.559,346.486,355.169,285.771,355.169Z"/><path d="M392,14A106,106,0,1,0,498,120,106.121,106.121,0,0,0,392,14Zm0,200a94,94,0,1,1,94-94A94.106,94.106,0,0,1,392,214Z"/><path d="M392,68.207a22.6,22.6,0,0,1,22.571,22.571,6,6,0,1,0,12,0A34.62,34.62,0,0,0,398,56.739V46.509a6,6,0,0,0-12,0v10.23a34.568,34.568,0,0,0,6,68.611,22.569,22.569,0,0,1,.271,45.136c-.091,0-.18-.013-.271-.013s-.18.009-.271.013a22.592,22.592,0,0,1-22.3-22.564,6,6,0,0,0-12,0A34.62,34.62,0,0,0,386,181.961v11.53a6,6,0,0,0,12,0v-11.53a34.568,34.568,0,0,0-6-68.611,22.572,22.572,0,0,1,0-45.143Z"/></svg>
