<svg height="493pt" viewBox="0 -87 493.72589 493" width="493pt" xmlns="http://www.w3.org/2000/svg"><path d="m486.785156 15.636719c-42.574218-13.589844-87.503906-18.183594-131.941406-13.488281-48.789062 5.234374-86.484375 22.675781-109.023438 50.441406-25.855468 32.746094-30.796874 77.359375-12.730468 114.972656 1.910156 3.832031 4.078125 7.535156 6.480468 11.082031-8.273437 18.375-14.859374 37.464844-19.675781 57.035157-3.214843-3.921876-6.714843-7.957032-10.5-12.054688.507813-1.136719 1-2.285156 1.453125-3.453125 11.605469-29.875 4.371094-65.371094-18-88.320313-19.335937-19.84375-49.519531-30.652343-87.292968-31.265624-34.140626-.492188-68.011719 6.113281-99.460938 19.402343-3.496094 1.484375-5.851562 4.820313-6.0742188 8.609375-.2265622 3.789063 1.7148438 7.382813 5.0078128 9.269532 19.078125 11.082031 33.820312 28.320312 41.8125 48.886718 2.085937 5.464844 3.707031 11.183594 5.425781 17.234375 1.285156 4.523438 2.613281 9.203125 4.164063 13.8125 2.371093 7.511719 5.730468 14.679688 9.984374 21.3125 14.246094 21.515625 37.800782 33.710938 64.253907 33.710938 26.125-.015625 50.910156-11.550781 67.746093-31.527344 5.589844 6.328125 10.421876 12.425781 14.550782 18.109375 23.453125 32.285156 30.34375 58.71875 30.410156 58.984375l19.402344-4.859375c-.273438-1.097656-6.441406-25.167969-27.019532-56.324219 3.925782-21.109375 10.046876-41.746093 18.257813-61.582031 19.65625 18.566406 46.785156 29.847656 75.601563 30.324219.640624.011719 1.273437.015625 1.910156.015625 38.144531 0 71.042968-18.914063 88.253906-50.863282 4.300781-7.96875 7.566406-17.019531 10.296875-28.476562 1.46875-6.179688 2.652344-12.460938 3.796875-18.535156 1.550781-8.246094 3.015625-16.03125 5.144531-23.609375 8.261719-28.746094 26.046875-53.828125 50.445313-71.132813 3.109375-2.175781 4.71875-5.929687 4.148437-9.6875-.570312-3.753906-3.214843-6.863281-6.832031-8.023437zm-292.941406 192.417969c-25.019531-23.175782-59.550781-46.898438-106.398438-64.445313l-7.019531 18.734375c46.835938 17.539062 80.433594 41.535156 104.046875 64.382812-10.601562 14.035157-27.550781 23.667969-46.496094 25.707032-22.988281 2.476562-43-6.398438-54.886718-24.359375-3.285156-5.1875-5.871094-10.785157-7.699219-16.648438-1.398437-4.15625-2.601563-8.398437-3.878906-12.894531-1.761719-6.199219-3.582031-12.621094-5.984375-18.910156-7.117188-18.589844-18.898438-35.035156-34.210938-47.753906 23.84375-7.835938 48.828125-11.644532 73.921875-11.277344 22.578125.363281 53.617188 5.039062 73.292969 25.222656 15.535156 15.9375 21.488281 40.871094 15.3125 62.242188zm225.925781-108.988282c-2.367187 8.425782-3.984375 17.019532-5.546875 25.328125-1.148437 6.109375-2.234375 11.882813-3.601562 17.597657-2.3125 9.71875-5 17.222656-8.445313 23.621093-13.886719 25.773438-40.882812 40.820313-72.226562 40.335938-26.300781-.433594-50.8125-11.667969-67.039063-29.792969.046875-.09375.089844-.183594.136719-.273438 13.179687-26.121093 29.5-48.140624 48.5-65.449218 23.300781-21.332032 51.90625-36.003906 82.824219-42.484375l-4.191406-19.554688c-34.382813 7.210938-66.191407 23.53125-92.101563 47.253907-18.394531 16.757812-34.425781 37.433593-47.765625 61.554687-13.804688-29.273437-9.367188-66.871094 11.039062-92.011719 24.175782-29.785156 65.34375-39.910156 95.625-43.160156 10.507813-1.121094 21.070313-1.683594 31.636719-1.679688 24.898438.003907 49.703125 3.066407 73.851563 9.125-20.386719 18.808594-35.164063 42.894532-42.695313 69.589844zm0 0"/></svg>