<?xml version="1.0" encoding="iso-8859-1"?>
<!-- Generator: Adobe Illustrator 19.0.0, SVG Export Plug-In . SVG Version: 6.00 Build 0)  -->
<svg version="1.1" id="Layer_1" xmlns="http://www.w3.org/2000/svg" xmlns:xlink="http://www.w3.org/1999/xlink" x="0px" y="0px"
	 viewBox="0 0 165.351 165.351" style="enable-background:new 0 0 165.351 165.351;" xml:space="preserve">
<g>
	<g>
		<g>
			<path d="M114.654,108.604c-1.216-1.215-3.139-1.364-4.521-0.339l-7.765,5.741c-7.514,5.561-19.015,4.693-25.63-1.917
				L54.176,89.527c-6.615-6.617-7.475-18.116-1.917-25.632l5.74-7.764c1.023-1.384,0.879-3.308-0.338-4.523L33.467,27.416
				c-1.308-1.306-3.412-1.368-4.781-0.125L11.793,42.492C-0.933,53.948-2.64,74.093,7.94,87.512
				c1.072,1.71,7.095,10.335,33.785,37.026c26.578,26.578,35.221,32.642,36.975,33.745c5.889,4.75,13.113,7.071,20.344,7.068
				c9.128,0,18.265-3.699,24.728-10.879l15.203-16.894c1.237-1.374,1.181-3.475-0.125-4.781L114.654,108.604z M118.607,149.824
				c-9.192,10.21-25.204,11.523-35.694,2.928c-0.131-0.108-0.3-0.224-0.446-0.312c-0.307-0.183-7.857-4.845-35.828-32.815
				C18.662,91.649,13.978,84.072,13.813,83.797c-0.09-0.156-0.192-0.305-0.305-0.448C5.03,72.756,6.347,56.744,16.441,47.657
				l14.443-12.996l19.748,19.745l-3.961,5.358c-7.519,10.173-6.357,25.73,2.592,34.678l22.561,22.561
				c8.948,8.951,24.503,10.112,34.675,2.592l5.358-3.96l19.748,19.745L118.607,149.824z"/>
			<path d="M93.839,21.866c-1.919,0-3.475,1.554-3.475,3.475s1.556,3.475,3.475,3.475c11.136,0,21.608,4.336,29.483,12.212
				c7.875,7.876,12.212,18.343,12.212,29.483c0,1.92,1.556,3.475,3.475,3.475s3.475-1.554,3.475-3.475
				c0-12.996-5.059-25.211-14.248-34.396C119.048,26.924,106.833,21.866,93.839,21.866z"/>
			<path d="M142.977,21.37C129.192,7.591,110.869,0,91.382,0c-1.919,0-3.475,1.554-3.475,3.475c0,1.921,1.556,3.475,3.475,3.475
				c17.631,0,34.21,6.868,46.681,19.334c12.468,12.47,19.336,29.049,19.336,46.683c0,1.92,1.556,3.475,3.475,3.475
				s3.475-1.554,3.475-3.475C164.348,53.476,156.758,35.153,142.977,21.37z"/>
			<path d="M108.58,55.766c4.594,4.594,7.124,10.702,7.124,17.2c0,1.92,1.556,3.475,3.475,3.475s3.475-1.554,3.475-3.475
				c0-8.354-3.252-16.206-9.16-22.113c-5.908-5.907-13.759-9.158-22.112-9.158c-1.919,0-3.475,1.554-3.475,3.475
				c0,1.921,1.556,3.475,3.475,3.475C97.878,48.644,103.986,51.175,108.58,55.766z"/>
		</g>
	</g>
</g>
<g>
</g>
<g>
</g>
<g>
</g>
<g>
</g>
<g>
</g>
<g>
</g>
<g>
</g>
<g>
</g>
<g>
</g>
<g>
</g>
<g>
</g>
<g>
</g>
<g>
</g>
<g>
</g>
<g>
</g>
</svg>
