<svg id="Layer_1" data-name="Layer 1" xmlns="http://www.w3.org/2000/svg" viewBox="0 0 512 512"><title>Human Resources</title><path d="M163.643,167.654v63.329a6,6,0,0,0,6,6H342.36a6,6,0,0,0,6-6V167.654a46.3,46.3,0,0,0-46.3-46.3H287.5a4.328,4.328,0,0,1-3.38-1.625,9.69,9.69,0,0,0-5.642-3.617l-2.146-.416a9.063,9.063,0,0,0-8.134,2.489l-3.169,3.169H247.18l-3.634-4.083a8.425,8.425,0,0,0-9.343-2.253l-1.538.6a9.1,9.1,0,0,0-4.3,3.727,4.336,4.336,0,0,1-3.658,2.012H209.944A46.3,46.3,0,0,0,163.643,167.654Zm95.474-34.3-1.806,5.271h-2.619l-1.806-5.271Zm-2.6,18.181,7.7,44.314-8.337,9.737-8.052-9.636ZM236.9,127.854l2.3,2.587,5.972,16.546L235.5,196.453a6,6,0,0,0,1.285,5l14.433,17.272a6,6,0,0,0,4.569,2.152h.035a6,6,0,0,0,4.558-2.1l14.788-17.271a6,6,0,0,0,1.354-4.93l-8.886-51.1,5.1-14.859,2.659-2.659a16.279,16.279,0,0,0,11.567,5.391q.162.009.324.009H302.06a34.339,34.339,0,0,1,34.3,34.3v57.329H175.643V167.654a34.34,34.34,0,0,1,34.3-34.3h14.767A16.28,16.28,0,0,0,236.9,127.854Z"/><path d="M256,114.437a40.59,40.59,0,0,0,40.543-40.543V50.864a40.544,40.544,0,0,0-81.087,0v23.03A40.59,40.59,0,0,0,256,114.437ZM227.458,50.864a28.544,28.544,0,0,1,57.087,0v23.03a28.544,28.544,0,0,1-57.087,0Z"/><path d="M290.545,176.76h22.17a6,6,0,0,0,0-12h-22.17a6,6,0,0,0,0,12Z"/><path d="M250,319.8a6,6,0,0,0,12,0V278.138H409.642a13.206,13.206,0,0,1,13.191,13.19v25.225a6,6,0,0,0,12,0V291.328a25.219,25.219,0,0,0-25.191-25.19H262V253.186a6,6,0,0,0-12,0v12.952H102.358a25.219,25.219,0,0,0-25.191,25.19v25.225a6,6,0,0,0,12,0V291.328a13.206,13.206,0,0,1,13.191-13.19H250Z"/><path d="M50.3,374.776v17.912a32.867,32.867,0,1,0,65.734,0V374.776a32.867,32.867,0,0,0-65.734,0Zm53.734,0v17.912a20.892,20.892,0,0,1-20.867,20.868h0A20.891,20.891,0,0,1,62.3,392.688V374.776a20.867,20.867,0,0,1,41.734,0Z"/><path d="M16,501.679H150.335a6,6,0,0,0,6-6v-20.47a37.345,37.345,0,0,0-37.345-37.346H107.668a2.029,2.029,0,0,1-1.313-.479,9.607,9.607,0,0,0-4.715-2.175h0a9.483,9.483,0,0,0-10.375,6.167l-1.715,4.781a6.821,6.821,0,0,1-4.786,4.412,6.652,6.652,0,0,1-7.816-4.3l-1.7-4.935a9.413,9.413,0,0,0-13.52-5.118,6.312,6.312,0,0,0-1.459,1.056,2.032,2.032,0,0,1-1.437.594H47.345A37.345,37.345,0,0,0,10,475.208v20.471A6,6,0,0,0,16,501.679Zm6-26.47a25.374,25.374,0,0,1,25.345-25.346H58.831a13.947,13.947,0,0,0,6.17-1.43l.6,1.743a18.643,18.643,0,0,0,35.173.223l.709-1.973a13.945,13.945,0,0,0,5.711,1.429c.1,0,.206.008.31.008H118.99a25.374,25.374,0,0,1,25.345,25.346v14.47H22Z"/><path d="M223.133,374.776v17.912a32.867,32.867,0,1,0,65.734,0V374.776a32.867,32.867,0,0,0-65.734,0Zm53.734,0v17.912A20.892,20.892,0,0,1,256,413.556h0a20.892,20.892,0,0,1-20.867-20.868V374.776a20.867,20.867,0,0,1,41.734,0Z"/><path d="M188.832,501.679H323.168a6,6,0,0,0,6-6v-20.47a37.346,37.346,0,0,0-37.346-37.346H280.5a2.031,2.031,0,0,1-1.313-.479,9.607,9.607,0,0,0-4.715-2.175h0a9.481,9.481,0,0,0-10.375,6.167l-1.716,4.781a6.821,6.821,0,0,1-4.786,4.412,6.65,6.65,0,0,1-7.815-4.3l-1.7-4.935a9.413,9.413,0,0,0-13.52-5.118,6.333,6.333,0,0,0-1.459,1.056,2.032,2.032,0,0,1-1.437.594H220.177a37.345,37.345,0,0,0-37.345,37.345v20.471A6,6,0,0,0,188.832,501.679Zm6-26.47a25.374,25.374,0,0,1,25.345-25.346h11.486a13.952,13.952,0,0,0,6.171-1.43l.6,1.743a18.644,18.644,0,0,0,35.174.223l.708-1.973a13.949,13.949,0,0,0,5.712,1.429c.1,0,.2.008.309.008h11.486a25.374,25.374,0,0,1,25.345,25.346v14.47H194.832Z"/><path d="M395.965,374.776v17.912a32.867,32.867,0,1,0,65.734,0V374.776a32.867,32.867,0,0,0-65.734,0Zm53.734,0v17.912a20.891,20.891,0,0,1-20.866,20.868h0a20.892,20.892,0,0,1-20.867-20.868V374.776a20.867,20.867,0,0,1,41.734,0Z"/><path d="M502,495.679v-20.47a37.346,37.346,0,0,0-37.346-37.346H453.333a2.027,2.027,0,0,1-1.313-.479,9.606,9.606,0,0,0-4.716-2.175h0a9.482,9.482,0,0,0-10.375,6.167l-1.715,4.781a6.821,6.821,0,0,1-4.787,4.412,6.651,6.651,0,0,1-7.815-4.3l-1.7-4.935a9.413,9.413,0,0,0-13.52-5.118,6.318,6.318,0,0,0-1.46,1.056,2.029,2.029,0,0,1-1.437.594H393.009a37.345,37.345,0,0,0-37.344,37.345v20.471a6,6,0,0,0,6,6H496A6,6,0,0,0,502,495.679Zm-12-6H367.665v-14.47a25.373,25.373,0,0,1,25.344-25.346H404.5a13.948,13.948,0,0,0,6.171-1.43l.6,1.743a18.643,18.643,0,0,0,35.173.223l.708-1.973a13.949,13.949,0,0,0,5.712,1.429c.1,0,.2.008.309.008h11.486A25.374,25.374,0,0,1,490,475.209Z"/></svg>